<?xml version="1.0" encoding="utf-8"?>
<!-- Generator: Adobe Illustrator 27.5.0, SVG Export Plug-In . SVG Version: 6.00 Build 0)  -->
<svg version="1.1" xmlns="http://www.w3.org/2000/svg" xmlns:xlink="http://www.w3.org/1999/xlink" x="0px" y="0px"
	 viewBox="0 0 500 500" style="enable-background:new 0 0 500 500;" xml:space="preserve">
<g id="BACKGROUND">
	<rect x="-0.056" y="-0.871" style="fill:#FFF8F3;" width="500" height="500"/>
</g>
<g id="OBJECTS">
	<g>
		<g>
			<g>
				<defs>
					<circle id="SVGID_1_" cx="141.571" cy="151.776" r="91.744"/>
				</defs>
				<clipPath id="SVGID_00000105394729772084764800000014467142794617953674_">
					<use xlink:href="#SVGID_1_"  style="overflow:visible;"/>
				</clipPath>
				
					<rect x="39.074" y="11.201" style="clip-path:url(#SVGID_00000105394729772084764800000014467142794617953674_);fill:#FFA9A9;" width="201.536" height="276.941"/>
				<g style="clip-path:url(#SVGID_00000105394729772084764800000014467142794617953674_);">
					<path style="fill:#EAAE4E;" d="M228.13,291.476H60.702c-29.184,0-53.062-23.878-53.062-53.063v0
						c0-29.184,23.878-53.063,53.062-53.063H228.13c29.184,0,53.063,23.878,53.063,53.063v0
						C281.192,267.598,257.314,291.476,228.13,291.476z"/>
					<path style="fill:#9E3A2B;" d="M122.108,129.433c-0.079,5.222-4.377,9.392-9.599,9.313c-5.223-0.079-9.392-4.377-9.313-9.599
						c0.079-5.222,4.377-9.392,9.599-9.313C118.018,119.913,122.188,124.21,122.108,129.433z"/>
					<path style="fill:#9E3A2B;" d="M163.175,141.57c-0.87,5.653-3.621,9.834-3.588,15.553c0.049,8.56-2.306,28.865,3.868,34.794
						c-3.526,5.212-8.995,9.581-15.036,11.342c-6.042,1.761-12.693,1.345-18.468-1.156c-1.575-0.682-3.082-1.511-4.586-2.339
						c-1.845-1.016-3.69-2.031-5.535-3.047c7.382-13.77,4.421-36.28,1.797-51.682c3.888-0.861,18.527,4.644,22.415,3.783
						c1.687-0.374,3.391-0.749,5.119-0.734C151.902,148.11,160.49,142.124,163.175,141.57z"/>
					<path style="fill:#2D1A14;" d="M155.02,97.55c-6.973,3.087-9.415,11.465-6.964,18.011c2.451,6.547,8.619,11.435,15.189,15.071
						c1.082-8.826,1.548-16.498,2.629-25.324c0.406-3.316,0.282-7.519-3.126-8.867C160.834,95.683,156.907,96.714,155.02,97.55z"/>
					<path style="fill:#9E3A2B;" d="M167.84,108.2l-0.118,7.375l-0.076,5.342l-0.111,7.569l-0.146,9.512l-0.062,3.85l-0.028,1.956
						c-0.132,8.554-4.683,16.061-11.434,20.363c-3.587,2.283-7.791,3.663-12.287,3.816c-0.402,0.014-0.805,0.014-1.207,0.007
						c-1.839-0.028-3.628-0.264-5.356-0.673c-0.291-0.069-0.576-0.146-0.867-0.229c-0.09-0.028-0.18-0.048-0.271-0.076
						c-0.097-0.028-0.194-0.062-0.291-0.09c-0.173-0.048-0.354-0.111-0.527-0.166c-0.243-0.083-0.493-0.167-0.735-0.257
						c-1.117-0.409-2.192-0.895-3.226-1.457c-1.367-0.742-2.657-1.617-3.85-2.595c-0.298-0.243-0.583-0.486-0.867-0.735
						c-0.604-0.548-1.186-1.117-1.734-1.721c-0.222-0.243-0.444-0.493-0.652-0.749c-0.132-0.153-0.264-0.305-0.389-0.458
						c-0.229-0.291-0.458-0.59-0.68-0.888c-1.02-1.388-1.887-2.893-2.609-4.482c-0.076-0.173-0.153-0.347-0.229-0.527
						c-0.312-0.742-0.583-1.499-0.819-2.269c-0.104-0.319-0.194-0.645-0.278-0.964c-0.021-0.083-0.049-0.167-0.063-0.25
						c-0.035-0.132-0.069-0.264-0.097-0.402c-0.097-0.382-0.174-0.763-0.243-1.152c-0.069-0.368-0.132-0.735-0.18-1.103
						c-0.007-0.083-0.021-0.153-0.028-0.229c-0.035-0.257-0.062-0.507-0.083-0.763c-0.014-0.083-0.014-0.167-0.021-0.25
						c-0.014-0.139-0.028-0.271-0.035-0.409c-0.021-0.271-0.028-0.534-0.042-0.805c-0.014-0.402-0.021-0.819-0.014-1.228
						l0.056-3.517l0.222-14.396l0.236-15.756l0.028-1.929c0.042-2.539,0.472-4.981,1.228-7.278c0.174-0.527,0.361-1.048,0.569-1.561
						c3.712-9.109,12.745-15.506,23.131-15.346c9.227,0.139,17.234,5.425,21.306,13.071l0.069,0.125
						c0.132,0.257,0.264,0.52,0.389,0.784c0.035,0.063,0.062,0.118,0.09,0.18c0.118,0.257,0.236,0.52,0.347,0.777l0.083,0.187
						c0.132,0.312,0.257,0.631,0.382,0.957c0.055,0.16,0.118,0.319,0.173,0.479c0.055,0.166,0.104,0.326,0.167,0.486
						c0.048,0.167,0.097,0.326,0.146,0.486c0.007,0.007,0.007,0.014,0.007,0.014c0.049,0.166,0.097,0.326,0.139,0.493
						c0.048,0.167,0.09,0.326,0.132,0.493c0.048,0.18,0.09,0.368,0.132,0.548c0.076,0.319,0.146,0.645,0.208,0.978
						c0.014,0.076,0.028,0.16,0.042,0.243c0.028,0.146,0.049,0.285,0.069,0.423c0.028,0.167,0.055,0.34,0.076,0.507
						c0.007,0.069,0.021,0.139,0.028,0.208c0.014,0.111,0.028,0.229,0.042,0.34c0.014,0.097,0.021,0.194,0.028,0.291
						c0.007,0.035,0.007,0.076,0.014,0.111c0.014,0.16,0.035,0.312,0.042,0.472c0.014,0.16,0.021,0.312,0.035,0.472
						c0.014,0.194,0.021,0.396,0.028,0.59C167.84,107.395,167.84,107.797,167.84,108.2z"/>
					<path style="fill:#362F36;" d="M167.328,141.845l-0.03,1.959c-0.128,8.557-4.682,16.061-11.433,20.361
						c-3.585,2.282-7.794,3.663-12.289,3.815c-0.401,0.014-0.802,0.017-1.207,0.01c-1.839-0.03-3.63-0.261-5.356-0.676
						c-0.294-0.069-0.578-0.145-0.865-0.228c-0.09-0.024-0.18-0.049-0.27-0.077c-0.097-0.027-0.197-0.059-0.291-0.089
						c-0.177-0.049-0.354-0.108-0.527-0.167c-0.246-0.081-0.493-0.165-0.739-0.256c-1.115-0.411-2.191-0.896-3.222-1.458
						c-1.37-0.742-2.658-1.611-3.857-2.592c-0.293-0.24-0.582-0.488-0.865-0.739c-0.605-0.545-1.183-1.116-1.732-1.714
						c-0.224-0.246-0.442-0.496-0.657-0.749c-0.129-0.153-0.257-0.307-0.383-0.464c-0.233-0.287-0.459-0.585-0.682-0.886
						c-1.018-1.389-1.892-2.892-2.607-4.48c-0.078-0.176-0.156-0.351-0.231-0.531c-0.31-0.741-0.586-1.499-0.821-2.27
						c-0.1-0.319-0.193-0.642-0.276-0.965c-0.023-0.081-0.047-0.163-0.063-0.245c-0.035-0.133-0.067-0.265-0.099-0.405
						c-0.092-0.381-0.17-0.766-0.242-1.154c-0.067-0.365-0.128-0.733-0.178-1.102c-0.009-0.078-0.019-0.15-0.028-0.229
						c-0.033-0.253-0.062-0.505-0.084-0.762c-0.01-0.085-0.016-0.168-0.022-0.253c-0.011-0.133-0.023-0.27-0.031-0.407
						c-0.019-0.267-0.032-0.534-0.041-0.801c-0.014-0.408-0.021-0.819-0.014-1.231l0.052-3.52c0.924,0.257,2.002,0.584,2.159,0.647
						c1.169,0.485,2.284,1.102,3.326,1.818c1.036,0.712,2.006,1.523,2.897,2.409c0.479,0.474,1.625,2.315,2.318,2.301
						c0.48-0.009,0.974-0.719,1.313-1.012c0.466-0.407,0.947-0.797,1.449-1.16c1.031-0.748,2.134-1.396,3.296-1.916
						c2.358-1.057,4.95-1.57,7.531-1.408c4.966,0.315,9.034,3.264,11.956,7.095c0.689,0.899,1.711,1.314,2.737,0.614
						c0.292-0.199,0.56-0.472,0.785-0.805c1.261-1.85,2.518-3.203,4.511-4.32c1.171-0.657,2.416-1.176,3.679-1.63
						C166.313,142.133,166.771,142.005,167.328,141.845z"/>
					<path style="fill:#9E3A2B;" d="M181.036,129.663c-0.079,5.223-4.377,9.392-9.599,9.313c-5.222-0.079-9.392-4.377-9.313-9.599
						c0.079-5.223,4.377-9.392,9.599-9.313C176.945,120.143,181.115,124.44,181.036,129.663z"/>
					<g>
						<path style="fill:#FFFFFF;" d="M162.814,130.342c-0.001,1.398-2.475,2.592-5.961,3.062c-1.022,0.138-2.133,0.214-3.295,0.215
							c-1.365,0.001-2.663-0.103-3.831-0.293c-3.2-0.514-5.423-1.656-5.423-2.979c0-1.233,1.926-2.305,4.773-2.863
							c1.327-0.261,2.855-0.41,4.482-0.41c1.465-0.001,2.851,0.12,4.081,0.333C160.706,127.938,162.815,129.054,162.814,130.342z"/>
						<path style="fill:#362F36;" d="M158.524,129.848c0.047,1.399-0.603,2.677-1.671,3.555c-1.022,0.138-2.133,0.214-3.295,0.215
							c-1.365,0.001-2.663-0.103-3.831-0.293c-0.905-0.796-1.478-1.896-1.52-3.128c-0.034-0.999,0.289-1.94,0.87-2.715
							c1.327-0.261,2.855-0.41,4.482-0.41c1.465-0.001,2.851,0.12,4.081,0.333C158.171,128.104,158.493,128.942,158.524,129.848z"/>
					</g>
					<g>
						<path style="fill:#FFFFFF;" d="M139.642,130.403c-0.001,1.398-2.475,2.592-5.961,3.062c-1.022,0.138-2.133,0.214-3.294,0.215
							c-1.365,0.001-2.663-0.103-3.831-0.293c-3.2-0.514-5.423-1.656-5.423-2.979c0-1.233,1.926-2.305,4.773-2.863
							c1.327-0.261,2.855-0.41,4.482-0.41c1.465-0.001,2.851,0.12,4.081,0.333C137.533,127.999,139.643,129.115,139.642,130.403z"/>
						<path style="fill:#362F36;" d="M135.352,129.91c0.048,1.399-0.603,2.677-1.671,3.555c-1.022,0.138-2.133,0.214-3.294,0.215
							c-1.365,0.001-2.663-0.103-3.831-0.293c-0.905-0.796-1.478-1.896-1.52-3.128c-0.034-0.999,0.289-1.94,0.87-2.715
							c1.327-0.261,2.855-0.41,4.482-0.41c1.465-0.001,2.851,0.12,4.081,0.333C134.999,128.166,135.321,129.004,135.352,129.91z"/>
					</g>
					<path style="fill:#362F36;" d="M167.84,108.2l-0.118,7.375l-0.076,5.342l-0.111,7.569c-3.615-3.622-5.668-8.624-6.577-13.681
						c-0.957-5.287-0.777-10.698-0.597-16.061c-6.161,8.326-16.547,10.768-26.87,11.663c-4.621,0.395-9.359,0.604-13.806-0.701
						c-0.333-0.097-0.659-0.201-0.985-0.312l0.028-1.929c0.049-3.122,0.687-6.105,1.797-8.839
						c3.712-9.109,12.745-15.506,23.131-15.346c9.227,0.139,17.234,5.425,21.306,13.071l0.069,0.125
						c0.132,0.257,0.264,0.52,0.389,0.784c0.035,0.063,0.062,0.118,0.09,0.18c0.118,0.257,0.236,0.52,0.347,0.777l0.083,0.187
						c0.132,0.312,0.257,0.631,0.382,0.957c0.055,0.16,0.118,0.319,0.173,0.479c0.055,0.166,0.104,0.326,0.167,0.486
						c0.048,0.167,0.097,0.326,0.146,0.486c0.007,0.007,0.007,0.014,0.007,0.014c0.049,0.166,0.097,0.326,0.139,0.493
						c0.048,0.167,0.09,0.326,0.132,0.493c0.048,0.18,0.09,0.368,0.132,0.548c0.076,0.319,0.146,0.645,0.208,0.978
						c0.014,0.076,0.028,0.16,0.042,0.243c0.028,0.146,0.049,0.285,0.069,0.423c0.028,0.167,0.055,0.34,0.076,0.507
						c0.007,0.069,0.021,0.139,0.028,0.208c0.014,0.111,0.028,0.229,0.042,0.34c0.014,0.097,0.021,0.194,0.028,0.291
						c0.007,0.035,0.007,0.076,0.014,0.111c0.014,0.16,0.035,0.312,0.042,0.472c0.014,0.16,0.021,0.312,0.035,0.472
						c0.014,0.194,0.021,0.396,0.028,0.59C167.84,107.395,167.84,107.797,167.84,108.2z"/>
					<path style="fill:#362F36;" d="M123.854,120.611c-1.499,1.956-3.448,3.511-5.377,5.044l-0.014-0.507l0.236-15.756l0.028-1.929
						c0.042-2.539,0.472-4.981,1.228-7.278l5.377,4.177C127.954,109.469,127.358,116.067,123.854,120.611z"/>
					<polygon style="fill:#9E3A2B;" points="135.365,139.841 141.819,145.969 148.063,139.841 					"/>
					<path style="fill:#9E3A2B;" d="M149.175,152.468c0.075,2.207-2.983,4.102-6.83,4.233c-3.847,0.13-7.026-1.553-7.101-3.76
						c-0.075-2.207,2.983-4.102,6.83-4.233C145.921,148.577,149.1,150.261,149.175,152.468z"/>
					
						<path style="fill:none;stroke:#472A1C;stroke-width:1.1134;stroke-linecap:round;stroke-linejoin:round;stroke-miterlimit:10;" d="
						M138.163,150.854c2.636,0.948,5.628,0.863,8.205-0.234"/>
					<path style="fill:#FFF8F3;" d="M118.062,184.035v30.883c0,12.881,10.539,23.42,23.42,23.42h0
						c12.881,0,23.42-10.539,23.42-23.42v-30.883H118.062z"/>
					<path style="fill:#362F36;" d="M136.206,123.986l-8.45,0.286c-1.193,0.04-2.202-0.903-2.243-2.096l0,0
						c-0.04-1.193,0.903-2.203,2.096-2.243l8.45-0.286c1.193-0.04,2.203,0.903,2.243,2.096l0,0
						C138.343,122.936,137.4,123.945,136.206,123.986z"/>
					<path style="fill:#362F36;" d="M156.98,123.053l-8.45,0.287c-1.193,0.04-2.203-0.903-2.243-2.096l0,0
						c-0.04-1.193,0.903-2.203,2.096-2.243l8.45-0.287c1.193-0.04,2.203,0.903,2.243,2.096l0,0
						C159.116,122.003,158.173,123.012,156.98,123.053z"/>
				</g>
			</g>
			
				<path style="fill:none;stroke:#472A1C;stroke-width:1.1134;stroke-linecap:round;stroke-linejoin:round;stroke-miterlimit:10;" d="
				M118.114,208.872c0,0,17.86-2.963,22.201-18.501c0,0,4.912,18.987,25.02,18.53"/>
			
				<path style="fill:none;stroke:#472A1C;stroke-width:1.1134;stroke-linecap:round;stroke-linejoin:round;stroke-miterlimit:10;" d="
				M141.253,221.559L141.253,221.559c-1.697,0-3.085-1.388-3.085-3.085l0,0c0-1.697,1.388-3.085,3.085-3.085l0,0
				c1.696,0,3.084,1.388,3.084,3.085l0,0C144.337,220.171,142.949,221.559,141.253,221.559z"/>
			
				<path style="fill:none;stroke:#FFF8F3;stroke-width:2.0164;stroke-linecap:round;stroke-linejoin:round;stroke-miterlimit:10;" d="
				M54.498,59.528"/>
		</g>
		<path style="fill:#362F36;" d="M122.417,114.321c-2.642-1.386-5.329-2.804-7.439-4.913c-2.111-2.109-3.596-5.054-3.239-8.017
			c0.357-2.962,2.973-5.703,5.952-5.529c-4.258-4.362-3.654-12.682,0.529-17.117s11.933-4.822,16.537-0.826
			c0.436-3.314,5.423-4.609,8.764-4.725c3.341-0.116,6.509,1.495,9.213,3.46c2.704,1.966,5.121,4.327,7.97,6.075
			c2.849,1.748,6.325,2.852,9.546,1.96c3.221-0.893,5.846-4.311,4.98-7.539c2.677,2.412,4.92,6.361,3.861,9.806
			c-1.059,3.444-4.231,6.141-7.801,6.632c5.142,2.506,8.096,7.679,7.1,13.312c-0.996,5.633-6.015,10.304-11.705,10.894
			c-1.877-7.966-5.092-16.907-6.97-24.873c-7.689,10.993-22.685,16.269-35.563,12.51
			C125.566,109.294,125.629,111.749,122.417,114.321z"/>
	</g>
	<g>
		<g>
			<defs>
				<ellipse id="SVGID_00000048494167842582551540000016678459219891852432_" cx="141.571" cy="364.377" rx="92.447" ry="93.311"/>
			</defs>
			<clipPath id="SVGID_00000131342885949771325530000013949556083474652347_">
				<use xlink:href="#SVGID_00000048494167842582551540000016678459219891852432_"  style="overflow:visible;"/>
			</clipPath>
			
				<ellipse style="clip-path:url(#SVGID_00000131342885949771325530000013949556083474652347_);fill:#FFA9A9;" cx="141.571" cy="364.377" rx="92.447" ry="93.311"/>
			<path style="clip-path:url(#SVGID_00000131342885949771325530000013949556083474652347_);fill:#F3725F;" d="M85.993,531.991
				h109.409c-1.146-5.024-1.888-10.081-1.556-15.237c0.99-15.35,11.332-28.976,16.129-43.254c1.96-5.834,2.994-11.778,2.087-17.992
				c-2.458-16.828-18.417-27.808-33.931-33.081c-24.351-8.277-51.362-7.76-75.408,1.445c-16.434,6.293-28.554,21.267-31.455,39.315
				c-3.615,22.492,11.867,34.919,14.21,55.283C85.995,522.968,86.118,527.477,85.993,531.991z"/>
			<path style="clip-path:url(#SVGID_00000131342885949771325530000013949556083474652347_);fill:#DD5F52;" d="M170.267,421.128
				c-10.363-5.907-16.391-19.115-14.252-31.231H135.3c0.27,8.434-4.56,14.427-9.012,21.473c-2.321,3.672-5.088,7.487-9.141,8.698
				c5.855,8.181,15.99,12.271,25.773,12.53C152.702,432.857,164.022,428.989,170.267,421.128z"/>
			<path style="clip-path:url(#SVGID_00000131342885949771325530000013949556083474652347_);fill:#5433F6;" d="M85.993,531.991
				h109.409c-1.146-5.024-1.888-10.081-1.556-15.237c0.99-15.35,11.332-28.976,16.129-43.254c1.96-5.834,2.994-11.778,2.087-17.992
				c-2.458-16.828-18.417-27.808-33.931-33.081c-24.351-8.277-51.362-7.76-75.408,1.445c-16.434,6.293-28.554,21.267-31.455,39.315
				c-3.615,22.492,11.867,34.919,14.21,55.283C85.995,522.968,86.118,527.477,85.993,531.991z"/>
			<path style="clip-path:url(#SVGID_00000131342885949771325530000013949556083474652347_);fill:#5433F6;" d="M156.835,403.484
				h-25.544c-1.516,2.605-3.286,5.167-5.004,7.885c-2.321,3.672-5.088,7.487-9.141,8.698c5.855,8.181,15.99,12.271,25.773,12.53
				c9.783,0.259,21.104-3.609,27.349-11.469C163.772,417.426,158.981,410.856,156.835,403.484z"/>
			<path style="clip-path:url(#SVGID_00000131342885949771325530000013949556083474652347_);fill:#F3725F;" d="M163.874,360.801
				c-0.055,5.117,3.793,9.312,8.596,9.371c4.803,0.059,8.741-4.041,8.796-9.158c0.055-5.117-3.793-9.312-8.596-9.371
				C167.868,351.585,163.929,355.685,163.874,360.801z"/>
			<path style="clip-path:url(#SVGID_00000131342885949771325530000013949556083474652347_);fill:#F3725F;" d="M167.102,375.457
				c-0.015,0.262-0.034,0.523-0.058,0.783c-0.012,0.132-0.024,0.266-0.038,0.397c-0.009,0.082-0.016,0.164-0.027,0.246
				c-0.028,0.251-0.059,0.497-0.096,0.745c-0.011,0.075-0.022,0.147-0.033,0.223c-0.056,0.36-0.119,0.72-0.19,1.075
				c-0.075,0.378-0.158,0.753-0.25,1.125c-0.032,0.133-0.066,0.263-0.1,0.393c-0.02,0.079-0.042,0.158-0.064,0.237
				c-0.085,0.316-0.178,0.627-0.277,0.937c-0.236,0.751-0.508,1.485-0.813,2.202c-0.072,0.173-0.148,0.345-0.225,0.515
				c-0.695,1.536-1.536,2.983-2.506,4.319c-0.212,0.289-0.428,0.573-0.647,0.849c-0.119,0.151-0.241,0.296-0.362,0.445
				c-0.205,0.242-0.411,0.479-0.624,0.714c-0.518,0.574-1.064,1.118-1.633,1.634c-0.267,0.24-0.537,0.473-0.812,0.701
				c-1.127,0.929-2.334,1.747-3.611,2.438c-0.962,0.524-1.963,0.972-2.998,1.345c-0.227,0.082-0.455,0.16-0.683,0.232
				c-0.163,0.053-0.326,0.104-0.49,0.15c-0.088,0.027-0.178,0.055-0.268,0.079c-0.083,0.023-0.167,0.046-0.25,0.067
				c-0.266,0.073-0.532,0.141-0.801,0.201c-1.596,0.363-3.248,0.542-4.941,0.522c-0.372-0.005-0.74-0.019-1.107-0.043
				c-4.129-0.267-7.964-1.727-11.203-4.056c-6.102-4.386-10.103-11.853-10.012-20.238l0.062-5.69l0.183-16.734l0.056-5.234
				l0.078-7.223c0.005-0.397,0.018-0.793,0.041-1.184c0.011-0.193,0.024-0.389,0.04-0.581c0.011-0.155,0.024-0.306,0.042-0.458
				c0.013-0.153,0.031-0.308,0.051-0.46c0.002-0.038,0.006-0.075,0.013-0.11c0.01-0.094,0.022-0.188,0.036-0.281
				c0.013-0.113,0.028-0.223,0.046-0.335c0.008-0.068,0.019-0.136,0.029-0.204c0.025-0.164,0.052-0.327,0.081-0.491
				c0.023-0.138,0.049-0.276,0.077-0.413c0.013-0.082,0.029-0.161,0.047-0.243c0.063-0.32,0.134-0.634,0.212-0.948
				c0.041-0.177,0.087-0.356,0.134-0.53c0.043-0.163,0.087-0.323,0.134-0.485c0.045-0.158,0.093-0.315,0.14-0.473
				c0.002-0.005,0.003-0.009,0.005-0.014c0.049-0.158,0.1-0.313,0.151-0.47c0.053-0.157,0.107-0.315,0.162-0.472
				c0.055-0.155,0.113-0.312,0.171-0.466c0.118-0.315,0.244-0.625,0.375-0.933c0.025-0.059,0.052-0.117,0.077-0.175
				c0.11-0.253,0.223-0.505,0.34-0.753c0.027-0.058,0.055-0.115,0.083-0.173c0.124-0.256,0.252-0.51,0.384-0.761
				c0.021-0.04,0.042-0.079,0.063-0.119c3.933-7.379,11.419-12.349,19.909-12.245c9.548,0.118,17.695,6.619,20.882,15.632
				c0.96,2.709,1.471,5.645,1.437,8.703l-0.377,34.88C167.139,374.656,167.124,375.057,167.102,375.457z"/>
			<path style="clip-path:url(#SVGID_00000131342885949771325530000013949556083474652347_);fill:#F3725F;" d="M109.7,359.487
				c-0.055,5.117,3.793,9.312,8.596,9.371c4.803,0.059,8.741-4.041,8.796-9.158c0.055-5.117-3.793-9.312-8.596-9.371
				C113.694,350.271,109.756,354.371,109.7,359.487z"/>
			
				<polyline style="clip-path:url(#SVGID_00000131342885949771325530000013949556083474652347_);fill:none;stroke:#472A1C;stroke-width:0.9873;stroke-linecap:round;stroke-linejoin:round;stroke-miterlimit:10;" points="
				145.111,362.208 145.357,367.083 149.046,367.083 146.094,371.445 			"/>
			<g style="clip-path:url(#SVGID_00000131342885949771325530000013949556083474652347_);">
				<path style="fill:#FFFFFF;" d="M126.328,360.577c0.043,1.297,2.28,2.328,5.396,2.655c0.913,0.096,1.904,0.132,2.938,0.096
					c1.215-0.042,2.367-0.18,3.4-0.392c2.832-0.578,4.776-1.708,4.736-2.936c-0.037-1.145-1.783-2.079-4.334-2.508
					c-1.189-0.201-2.553-0.291-4.001-0.24c-1.304,0.045-2.533,0.201-3.621,0.437C128.132,358.279,126.288,359.382,126.328,360.577z"
					/>
				<path style="fill:#362F36;" d="M130.131,359.984c0,1.3,0.617,2.466,1.594,3.248c0.913,0.096,1.904,0.132,2.938,0.096
					c1.215-0.042,2.367-0.18,3.4-0.392c0.781-0.767,1.258-1.807,1.258-2.951c0-0.929-0.316-1.792-0.856-2.493
					c-1.189-0.201-2.553-0.291-4.001-0.24c-1.304,0.045-2.533,0.201-3.621,0.437C130.392,358.354,130.131,359.142,130.131,359.984z"
					/>
			</g>
			<g style="clip-path:url(#SVGID_00000131342885949771325530000013949556083474652347_);">
				<path style="fill:#FFFFFF;" d="M147.931,359.713c0.043,1.297,2.28,2.328,5.396,2.654c0.913,0.096,1.904,0.132,2.938,0.096
					c1.215-0.042,2.367-0.18,3.4-0.393c2.832-0.578,4.776-1.708,4.736-2.936c-0.037-1.144-1.783-2.079-4.334-2.508
					c-1.189-0.201-2.553-0.29-4.001-0.24c-1.304,0.045-2.533,0.201-3.621,0.437C149.735,357.415,147.891,358.518,147.931,359.713z"
					/>
				<path style="fill:#362F36;" d="M151.734,359.12c0,1.3,0.617,2.466,1.594,3.248c0.913,0.096,1.904,0.132,2.938,0.096
					c1.215-0.042,2.367-0.18,3.4-0.393c0.781-0.767,1.258-1.807,1.258-2.951c0-0.929-0.316-1.792-0.856-2.493
					c-1.189-0.201-2.553-0.29-4.001-0.24c-1.304,0.045-2.533,0.201-3.621,0.437C151.995,357.49,151.734,358.278,151.734,359.12z"/>
			</g>
			<path style="clip-path:url(#SVGID_00000131342885949771325530000013949556083474652347_);fill:#FFFFFF;" d="M139.404,375.082
				c0.149,3.311,2.872,5.951,6.22,5.951c3.347,0,6.07-2.64,6.22-5.951H139.404z"/>
		</g>
		
			<path style="fill:none;stroke:#472A1C;stroke-width:0.9873;stroke-linecap:round;stroke-linejoin:round;stroke-miterlimit:10;" d="
			M127.973,352.217c1.977-3.761,5.752-6.525,9.934-7.273"/>
		
			<path style="fill:none;stroke:#472A1C;stroke-width:0.9873;stroke-linecap:round;stroke-linejoin:round;stroke-miterlimit:10;" d="
			M161.871,351.851c-1.977-3.761-5.752-6.525-9.934-7.273"/>
		<path style="fill:#FCD6BE;" d="M118.558,321.288c-3.57,2.587-5.075,7.215-5.402,11.612c-0.725,9.734,3.559,19.709,11.118,25.885
			c-1.125-7.753-0.833-16.698,0.275-24.453c5.439,7.798,12.887,14.52,22.102,16.863c9.215,2.342,19.973-0.272,25.794-7.79
			c-1.377,1.926-3.585,2.974-4.962,4.9v13.509c8.091-6.251,13.133-16.339,12.449-26.541c-0.684-10.202-6.719-19.894-15.573-25.009
			c-8.853-5.115-20.265-5.503-29.445-1c0.678-6.652,6.322-12.854,12.774-14.613c-4.93-1.048-10.001-0.737-14.258,1.961
			c-4.257,2.698-7.395,7.106-8.552,12.011c-3.506-2.856-8.676-3.777-12.872-2.092c-4.196,1.685-7.333,5.76-7.89,10.247
			c2.407-1.733,6.683-3.374,9.386-2.155C116.206,315.842,118.263,318.336,118.558,321.288z"/>
		<path style="fill:#FCD6BE;" d="M125.318,374.033c0,3.536-2.867,6.402-6.403,6.402c-3.536,0-6.403-2.867-6.403-6.402
			c0-3.536,2.867-6.403,6.403-6.403C122.451,367.63,125.318,370.497,125.318,374.033z"/>
		<path style="fill:#FCD6BE;" d="M177.187,372.932c0,3.536-2.867,6.403-6.403,6.403c-3.536,0-6.403-2.867-6.403-6.403
			c0-3.536,2.866-6.402,6.403-6.402C174.321,366.53,177.187,369.396,177.187,372.932z"/>
	</g>
	<g>
		<g>
			<g>
				<defs>
					<ellipse id="SVGID_00000088090424637773754160000002501850160587443099_" cx="352.297" cy="151.524" rx="92.447" ry="93.311"/>
				</defs>
				<clipPath id="SVGID_00000127031934457829215660000009835636970956562829_">
					<use xlink:href="#SVGID_00000088090424637773754160000002501850160587443099_"  style="overflow:visible;"/>
				</clipPath>
				
					<ellipse style="clip-path:url(#SVGID_00000127031934457829215660000009835636970956562829_);fill:#FFA9A9;" cx="352.297" cy="151.524" rx="92.447" ry="93.311"/>
				<path style="clip-path:url(#SVGID_00000127031934457829215660000009835636970956562829_);fill:#362F36;" d="M457.426,139.014
					c-1.839-5.578-5.724-10.546-10.851-12.356c-5.668-2.005-12.12,0.146-16.588,4.475c-4.468,4.329-7.146,10.546-8.506,16.928
					c-1.36,6.383-1.505,12.995-1.651,19.551c-0.194-4.96-0.957-9.838-2.761-14.389c-1.804-4.544-4.967-8.603-9.165-10.421
					c-4.19-1.818-9.429-1.006-12.488,2.636c5.641-7.292,3.58-19.731-2.567-26.517c-3.282-3.621-7.625-5.793-12.224-6.577
					c0.229,1.797,0.354,3.601,0.402,5.398c0.187,6.751-1.769,11.996-1.443,18.739c-6.966,1.381-13.744-2.178-16.137-8.86
					c-3.788,0.333-7.632-0.16-11.239-1.36c-1.2,1.623-2.303,3.337-3.309,5.106c-4.614,8.117-7.292,17.379-9.456,26.662
					c-1.741-4.6-4.808-6.751-6.647-11.302c-2.505-6.168-7.146-11.246-12.766-13.959c-5.051-2.442-10.934-2.949-16.137-0.923
					c-5.203,2.026-9.602,6.688-11.225,12.495c-1.533,5.516-0.368,11.933,3.184,16.145c-4.038-4.225-10.108-4.523-15.693-3.323
					c-5.855,1.249-10.99,6.029-13.078,12.183c-3.726-13.349-17.116-22.493-29.632-20.238c9.436,36.576,29.201,67.79,59.499,86.036
					c30.291,18.246,68.171,21.299,99.926,6.362c31.755-14.93,56.301-48.1,61.539-85.683
					C459.23,149.962,459.258,144.599,457.426,139.014z"/>
				<g style="clip-path:url(#SVGID_00000127031934457829215660000009835636970956562829_);">
					<path style="fill:#FFFFFF;" d="M296.718,319.138h109.409c-1.146-5.024-1.888-10.081-1.556-15.237
						c0.99-15.35,11.332-28.976,16.129-43.254c1.96-5.834,2.994-11.777,2.087-17.992c-2.458-16.828-18.417-27.808-33.931-33.081
						c-24.351-8.277-51.362-7.76-75.408,1.445c-16.434,6.293-28.554,21.267-31.455,39.315c-3.615,22.492,11.866,34.919,14.21,55.283
						C296.721,310.115,296.844,314.625,296.718,319.138z"/>
					<path style="fill:#FFFFFF;" d="M433.378,319.138c7.335-10.653,12.355-23.017,14.161-36.012
						c-5.803-13.458-13.706-30.423-21.593-42.673c-2.761-4.289-5.752-8.602-9.933-11.372c-4.181-2.77-9.852-3.682-14.056-0.951
						c-3.124,2.03-4.924,5.642-6.456,9.134c-11.811,26.937-15.256,54.199-11.387,81.874H433.378z"/>
					<path style="fill:#FFFFFF;" d="M270.806,319.138h41.216c1.113-5.776,2.265-11.402,3.189-16.611
						c4.529-25.533,13.328-50.681,11.692-76.67c-0.161-2.565-0.478-5.274-1.878-7.283c-1.541-2.211-4.109-3.132-6.566-3.402
						c-10.672-1.173-20.053,7.471-28.105,15.589c-4.948,4.988-9.896,9.977-14.844,14.965
						c-11.371,11.464-28.416,25.609-22.852,41.758C256.778,299.445,263.167,309.814,270.806,319.138z"/>
					<path style="fill:#D85B4E;" d="M380.993,208.275c-10.363-5.907-16.391-19.115-14.252-31.231h-20.715
						c0.27,8.434-4.56,14.427-9.012,21.473c-2.321,3.673-5.088,7.487-9.141,8.698c5.855,8.18,15.99,12.271,25.773,12.53
						S374.748,216.136,380.993,208.275z"/>
					<g>
						<g>
							<path style="fill:#472A1C;" d="M336.111,226.393c6.427,3.412,13.36,4.973,20.627,4.555c0.921-0.053,0.928-1.494,0-1.44
								c-7.042,0.405-13.673-1.053-19.9-4.358C336.02,224.715,335.291,225.958,336.111,226.393L336.111,226.393z"/>
						</g>
					</g>
					<g>
						<g>
							<path style="fill:#472A1C;" d="M372.272,225.527c2.132-0.889,4.263-1.779,6.395-2.668c0.843-0.352,0.473-1.746-0.383-1.389
								c-2.132,0.889-4.263,1.779-6.395,2.668C371.047,224.49,371.417,225.885,372.272,225.527L372.272,225.527z"/>
						</g>
					</g>
					<path style="fill:#F3725F;" d="M374.599,147.948c-0.055,5.117,3.793,9.312,8.596,9.371c4.803,0.059,8.741-4.041,8.796-9.158
						c0.055-5.117-3.793-9.312-8.596-9.371C378.593,138.732,374.655,142.832,374.599,147.948z"/>
					<path style="fill:#F3725F;" d="M377.827,162.604c-0.015,0.261-0.034,0.523-0.058,0.783c-0.012,0.132-0.024,0.266-0.038,0.397
						c-0.009,0.082-0.016,0.164-0.027,0.246c-0.028,0.251-0.059,0.497-0.096,0.745c-0.011,0.075-0.022,0.147-0.033,0.222
						c-0.056,0.36-0.119,0.72-0.19,1.075c-0.075,0.378-0.158,0.753-0.25,1.125c-0.032,0.133-0.066,0.263-0.1,0.393
						c-0.02,0.079-0.042,0.158-0.064,0.237c-0.085,0.316-0.178,0.627-0.277,0.937c-0.236,0.751-0.508,1.484-0.813,2.202
						c-0.072,0.173-0.148,0.345-0.225,0.515c-0.695,1.536-1.536,2.983-2.506,4.319c-0.212,0.289-0.428,0.573-0.647,0.849
						c-0.12,0.151-0.241,0.296-0.363,0.445c-0.204,0.242-0.411,0.479-0.624,0.714c-0.518,0.574-1.064,1.118-1.632,1.634
						c-0.267,0.24-0.537,0.473-0.812,0.702c-1.127,0.929-2.333,1.747-3.611,2.438c-0.962,0.524-1.963,0.972-2.998,1.345
						c-0.227,0.082-0.455,0.16-0.683,0.232c-0.163,0.053-0.326,0.104-0.49,0.15c-0.088,0.027-0.178,0.055-0.268,0.08
						c-0.083,0.023-0.167,0.046-0.25,0.067c-0.266,0.072-0.532,0.141-0.801,0.201c-1.596,0.363-3.248,0.542-4.941,0.522
						c-0.372-0.005-0.74-0.019-1.107-0.043c-4.129-0.267-7.964-1.727-11.203-4.056c-6.102-4.386-10.103-11.853-10.012-20.238
						l0.062-5.69l0.182-16.734l0.056-5.234l0.078-7.223c0.005-0.397,0.018-0.793,0.041-1.184c0.011-0.193,0.024-0.388,0.04-0.581
						c0.011-0.155,0.024-0.305,0.042-0.458c0.013-0.153,0.031-0.308,0.051-0.46c0.002-0.038,0.006-0.075,0.013-0.11
						c0.01-0.094,0.022-0.188,0.036-0.281c0.013-0.113,0.028-0.223,0.046-0.335c0.008-0.068,0.019-0.136,0.029-0.204
						c0.025-0.164,0.052-0.328,0.081-0.491c0.023-0.138,0.049-0.276,0.077-0.413c0.013-0.082,0.029-0.161,0.047-0.243
						c0.063-0.32,0.134-0.634,0.212-0.948c0.041-0.177,0.087-0.356,0.134-0.53c0.042-0.163,0.087-0.323,0.134-0.485
						c0.045-0.158,0.093-0.315,0.14-0.473c0.002-0.005,0.003-0.009,0.005-0.014c0.049-0.158,0.1-0.313,0.151-0.47
						c0.053-0.157,0.107-0.315,0.162-0.472c0.055-0.155,0.113-0.312,0.171-0.466c0.118-0.315,0.244-0.625,0.375-0.933
						c0.025-0.059,0.052-0.117,0.077-0.175c0.11-0.253,0.223-0.505,0.34-0.753c0.027-0.058,0.055-0.115,0.083-0.173
						c0.124-0.256,0.252-0.51,0.384-0.761c0.021-0.04,0.042-0.079,0.063-0.119c3.933-7.379,11.419-12.349,19.909-12.245
						c9.548,0.118,17.695,6.619,20.883,15.632c0.96,2.709,1.471,5.645,1.437,8.703l-0.377,34.88
						C377.864,161.803,377.85,162.204,377.827,162.604z"/>
					<path style="fill:#F3725F;" d="M320.426,146.634c-0.055,5.117,3.793,9.312,8.596,9.372c4.803,0.059,8.741-4.041,8.796-9.158
						c0.055-5.117-3.793-9.312-8.596-9.371C324.419,137.418,320.481,141.518,320.426,146.634z"/>
					
						<polyline style="fill:none;stroke:#472A1C;stroke-width:0.9873;stroke-linecap:round;stroke-linejoin:round;stroke-miterlimit:10;" points="
						355.836,149.355 356.082,154.23 359.771,154.23 356.82,158.592 					"/>
					<g>
						<path style="fill:#FFFFFF;" d="M337.054,147.724c0.043,1.297,2.28,2.328,5.396,2.655c0.913,0.096,1.904,0.132,2.938,0.096
							c1.215-0.042,2.367-0.18,3.4-0.393c2.832-0.578,4.776-1.708,4.736-2.936c-0.037-1.144-1.783-2.079-4.334-2.508
							c-1.189-0.201-2.553-0.291-4.001-0.24c-1.304,0.045-2.533,0.201-3.621,0.437C338.857,145.426,337.014,146.529,337.054,147.724
							z"/>
						<path style="fill:#362F36;" d="M340.856,147.131c0,1.3,0.617,2.466,1.594,3.248c0.913,0.096,1.904,0.132,2.938,0.096
							c1.215-0.042,2.367-0.18,3.4-0.393c0.781-0.767,1.258-1.807,1.258-2.951c0-0.929-0.316-1.792-0.856-2.493
							c-1.189-0.201-2.553-0.291-4.001-0.24c-1.304,0.045-2.533,0.201-3.621,0.437C341.118,145.501,340.856,146.289,340.856,147.131
							z"/>
					</g>
					<g>
						<path style="fill:#FFFFFF;" d="M358.657,146.86c0.043,1.297,2.28,2.328,5.396,2.654c0.913,0.096,1.904,0.132,2.938,0.096
							c1.215-0.042,2.367-0.18,3.401-0.392c2.832-0.578,4.776-1.708,4.736-2.936c-0.037-1.144-1.784-2.079-4.334-2.508
							c-1.189-0.201-2.553-0.291-4.001-0.24c-1.304,0.045-2.533,0.201-3.621,0.438C360.46,144.562,358.617,145.665,358.657,146.86z"
							/>
						<path style="fill:#362F36;" d="M362.459,146.267c0,1.3,0.617,2.466,1.594,3.248c0.913,0.096,1.904,0.132,2.938,0.096
							c1.215-0.042,2.367-0.18,3.401-0.392c0.781-0.767,1.258-1.807,1.258-2.951c0-0.929-0.316-1.792-0.856-2.493
							c-1.189-0.201-2.553-0.291-4.001-0.24c-1.304,0.045-2.533,0.201-3.621,0.438C362.721,144.637,362.459,145.425,362.459,146.267
							z"/>
					</g>
					
						<path style="fill:none;stroke:#383138;stroke-width:3.1686;stroke-linecap:round;stroke-linejoin:round;stroke-miterlimit:10;" d="
						M338.072,138.152c3.484-1.048,7.202-1.307,10.798-0.751"/>
					
						<path style="fill:none;stroke:#383138;stroke-width:3.1686;stroke-linecap:round;stroke-linejoin:round;stroke-miterlimit:10;" d="
						M360.652,137.491c3.484-1.049,7.202-1.307,10.798-0.752"/>
					
						<path style="fill:#383138;stroke:#383138;stroke-width:3.1686;stroke-linecap:round;stroke-linejoin:round;stroke-miterlimit:10;" d="
						M341.943,128.913c-2.215,2.45-5.215,4.05-8.27,5.304c-0.41,2.341,0.239,4.725,0.315,7.101c0.076,2.375-0.686,5.099-2.849,6.084
						c-0.086-5.333-0.173-10.666-0.259-15.999c-0.135-8.32-1.491-16.067,6.62-21.358c1.44-0.94,3.218-1.669,4.854-1.139
						c1.323,0.429,2.275,1.606,2.882,2.857C347.706,116.863,345.647,124.815,341.943,128.913z"/>
					
						<path style="fill:#383138;stroke:#383138;stroke-width:3.1686;stroke-linecap:round;stroke-linejoin:round;stroke-miterlimit:10;" d="
						M374.717,126.892c-2.257,4.948-0.761,11.333,3.46,14.763v-18.797"/>
				</g>
			</g>
			<path style="fill:#362F36;" d="M379.583,136.482c-6.966,1.381-13.744-2.178-16.137-8.86c-3.788,0.333-7.632-0.16-11.239-1.36
				c-3.83-1.284-7.389-3.365-10.324-6.133c-0.056-0.049-0.111-0.104-0.167-0.16c-10.941-10.49-4.947-29.097,10.025-31.477
				c1.166-0.187,2.324-0.291,3.462-0.326c7.992-0.201,16.047,3.719,20.585,10.303c2.81,4.087,4.218,8.922,4.836,13.876
				c0.229,1.797,0.354,3.601,0.402,5.398C381.214,124.493,379.257,129.738,379.583,136.482z"/>
		</g>
		<path style="fill:#362F36;" d="M379.583,136.482c-6.966,1.381-13.744-2.178-16.137-8.86c-3.788,0.333-7.632-0.16-11.239-1.36
			c4.315-5.856,9.866-10.615,16.346-12.897c3.864-1.36,8.069-1.714,12.072-1.02c0.229,1.797,0.354,3.601,0.402,5.398
			C381.214,124.493,379.257,129.738,379.583,136.482z"/>
		
			<path style="fill:none;stroke:#472A1C;stroke-width:0.9873;stroke-linecap:round;stroke-linejoin:round;stroke-miterlimit:10;" d="
			M349.91,160.581c1.559,2.209,4.287,3.539,6.987,3.406c2.7-0.133,5.285-1.724,6.62-4.075"/>
		
			<ellipse style="fill:none;stroke:#EAAE4E;stroke-width:2.0164;stroke-linecap:round;stroke-linejoin:round;stroke-miterlimit:10;" cx="326.71" cy="173.438" rx="11.525" ry="18.659"/>
		
			<ellipse style="fill:none;stroke:#EAAE4E;stroke-width:2.0164;stroke-linecap:round;stroke-linejoin:round;stroke-miterlimit:10;" cx="384.077" cy="174.629" rx="11.525" ry="18.659"/>
	</g>
	<g>
		<g>
			<g>
				<g>
					<defs>
						
							<ellipse id="SVGID_00000054229347766230522440000014940921159776378553_" transform="matrix(0.2307 -0.973 0.973 0.2307 -83.7739 623.299)" cx="352.297" cy="364.629" rx="91.744" ry="91.744"/>
					</defs>
					<clipPath id="SVGID_00000049181195247805807970000010356216691005299632_">
						<use xlink:href="#SVGID_00000054229347766230522440000014940921159776378553_"  style="overflow:visible;"/>
					</clipPath>
					
						<rect x="249.799" y="224.054" style="clip-path:url(#SVGID_00000049181195247805807970000010356216691005299632_);fill:#FFA9A9;" width="201.536" height="276.941"/>
					<g style="clip-path:url(#SVGID_00000049181195247805807970000010356216691005299632_);">
						<path style="fill:#362F36;" d="M438.855,504.329H271.428c-29.184,0-53.063-23.878-53.063-53.063v0
							c0-29.184,23.878-53.063,53.063-53.063h167.427c29.184,0,53.062,23.878,53.062,53.063v0
							C491.917,480.451,468.039,504.329,438.855,504.329z"/>
						<path style="fill:#F05841;" d="M332.834,342.286c-0.079,5.222-4.377,9.392-9.599,9.313c-5.223-0.079-9.392-4.377-9.313-9.599
							c0.079-5.222,4.377-9.392,9.599-9.313C328.743,332.766,332.913,337.063,332.834,342.286z"/>
						<path style="fill:#F05841;" d="M325.711,402.207c8.939,6.719,18.186,13.503,30.054,11.587
							c7.803-1.26,15.288-4.667,20.36-10.389c-5.732-6.949-10.598-24.476-9.736-33.786c0.527-5.695,6.642-9.542,7.512-15.195
							c-2.685,0.554-11.273,6.539-14.015,6.515c-1.728-0.015-3.432,0.36-5.119,0.734c-3.888,0.861-18.527-4.644-22.415-3.783
							C340.586,364.982,332.743,387.689,325.711,402.207z"/>
						<path style="fill:#CE3B2C;" d="M325.711,402.207c8.939,6.719,18.186,13.503,30.054,11.587
							c7.803-1.26,15.288-4.667,20.36-10.389c-5.732-6.949-10.598-24.476-9.736-33.786c0.527-5.695,6.642-9.542,7.512-15.195
							c-2.685,0.554-11.273,6.539-14.015,6.515c-1.728-0.015-3.432,0.36-5.119,0.734c-3.888,0.861-18.527-4.644-22.415-3.783
							C340.586,364.982,332.743,387.689,325.711,402.207z"/>
						<path style="fill:#2D1A14;" d="M365.745,310.402c-6.973,3.087-9.415,11.465-6.964,18.012
							c2.451,6.547,8.619,11.435,15.189,15.071c1.082-8.826,1.548-16.498,2.629-25.324c0.406-3.316,0.282-7.519-3.126-8.867
							C371.56,308.536,367.633,309.567,365.745,310.402z"/>
						<path style="fill:#F05841;" d="M378.566,321.052l-0.118,7.375l-0.076,5.342l-0.111,7.569l-0.146,9.512l-0.063,3.851
							l-0.028,1.956c-0.132,8.554-4.683,16.061-11.434,20.363c-3.587,2.283-7.791,3.663-12.287,3.816
							c-0.402,0.014-0.805,0.014-1.207,0.007c-1.839-0.028-3.628-0.264-5.356-0.673c-0.291-0.069-0.576-0.146-0.867-0.229
							c-0.09-0.028-0.18-0.049-0.271-0.076c-0.097-0.028-0.194-0.063-0.291-0.09c-0.173-0.049-0.354-0.111-0.527-0.167
							c-0.243-0.083-0.493-0.167-0.735-0.257c-1.117-0.409-2.192-0.895-3.226-1.457c-1.367-0.742-2.657-1.616-3.85-2.595
							c-0.298-0.243-0.583-0.486-0.867-0.735c-0.604-0.548-1.186-1.117-1.734-1.721c-0.222-0.243-0.444-0.493-0.652-0.749
							c-0.132-0.153-0.264-0.305-0.389-0.458c-0.229-0.291-0.458-0.59-0.68-0.888c-1.02-1.388-1.887-2.893-2.609-4.482
							c-0.076-0.174-0.153-0.347-0.229-0.527c-0.312-0.742-0.583-1.499-0.819-2.269c-0.104-0.319-0.194-0.645-0.277-0.964
							c-0.021-0.083-0.049-0.167-0.062-0.25c-0.035-0.132-0.07-0.264-0.097-0.402c-0.097-0.382-0.173-0.763-0.243-1.152
							c-0.069-0.368-0.132-0.735-0.18-1.103c-0.007-0.083-0.021-0.153-0.028-0.229c-0.035-0.257-0.062-0.507-0.083-0.763
							c-0.014-0.083-0.014-0.166-0.021-0.25c-0.014-0.139-0.028-0.271-0.035-0.409c-0.021-0.271-0.028-0.534-0.042-0.805
							c-0.014-0.402-0.021-0.819-0.014-1.228l0.056-3.517l0.222-14.396l0.236-15.756l0.028-1.929
							c0.042-2.539,0.472-4.981,1.228-7.278c0.173-0.527,0.361-1.048,0.569-1.561c3.712-9.109,12.745-15.506,23.131-15.347
							c9.227,0.139,17.234,5.425,21.306,13.071l0.069,0.125c0.132,0.257,0.264,0.52,0.389,0.784c0.035,0.062,0.062,0.118,0.09,0.18
							c0.118,0.257,0.236,0.52,0.347,0.777l0.083,0.187c0.132,0.312,0.257,0.631,0.382,0.958c0.056,0.159,0.118,0.319,0.173,0.479
							c0.056,0.166,0.104,0.326,0.167,0.486c0.049,0.167,0.097,0.326,0.146,0.486c0.007,0.007,0.007,0.014,0.007,0.014
							c0.049,0.167,0.097,0.326,0.139,0.493c0.048,0.167,0.09,0.326,0.132,0.493c0.049,0.18,0.09,0.368,0.132,0.548
							c0.076,0.319,0.146,0.645,0.208,0.978c0.014,0.076,0.028,0.16,0.042,0.243c0.028,0.146,0.048,0.284,0.069,0.423
							c0.028,0.167,0.055,0.34,0.076,0.506c0.007,0.069,0.021,0.139,0.028,0.208c0.014,0.111,0.028,0.229,0.042,0.34
							c0.014,0.097,0.021,0.194,0.028,0.291c0.007,0.035,0.007,0.076,0.014,0.111c0.014,0.16,0.035,0.312,0.042,0.472
							c0.014,0.16,0.021,0.312,0.035,0.472c0.014,0.194,0.021,0.395,0.028,0.59C378.566,320.248,378.566,320.65,378.566,321.052z"/>
						<path style="fill:#F05841;" d="M391.761,342.516c-0.079,5.223-4.377,9.392-9.599,9.313c-5.222-0.079-9.392-4.377-9.313-9.599
							c0.079-5.223,4.377-9.392,9.599-9.313C387.671,332.996,391.84,337.293,391.761,342.516z"/>
						<g>
							<path style="fill:#FFFFFF;" d="M373.539,343.195c-0.001,1.398-2.475,2.592-5.961,3.062c-1.022,0.138-2.133,0.214-3.294,0.215
								c-1.365,0.001-2.663-0.103-3.831-0.293c-3.2-0.514-5.423-1.656-5.423-2.979c0-1.233,1.926-2.305,4.773-2.863
								c1.327-0.261,2.855-0.41,4.482-0.41c1.465-0.001,2.851,0.12,4.081,0.333C371.431,340.791,373.541,341.907,373.539,343.195z"
								/>
							<path style="fill:#362F36;" d="M369.249,342.701c0.048,1.399-0.603,2.677-1.671,3.555c-1.022,0.138-2.133,0.214-3.294,0.215
								c-1.365,0.001-2.663-0.103-3.831-0.293c-0.905-0.796-1.478-1.896-1.52-3.128c-0.034-0.999,0.289-1.94,0.87-2.715
								c1.327-0.261,2.855-0.41,4.482-0.41c1.465-0.001,2.851,0.12,4.081,0.333C368.897,340.957,369.219,341.795,369.249,342.701z"
								/>
						</g>
						<g>
							<path style="fill:#FFFFFF;" d="M350.367,343.256c-0.001,1.398-2.475,2.592-5.961,3.062c-1.022,0.138-2.133,0.214-3.294,0.215
								c-1.365,0.001-2.663-0.103-3.832-0.293c-3.2-0.515-5.423-1.656-5.423-2.979c0-1.233,1.926-2.305,4.773-2.863
								c1.327-0.261,2.855-0.41,4.482-0.41c1.465-0.001,2.851,0.12,4.081,0.333C348.259,340.852,350.368,341.968,350.367,343.256z"
								/>
							<path style="fill:#362F36;" d="M346.077,342.763c0.047,1.399-0.603,2.677-1.671,3.555c-1.022,0.138-2.133,0.214-3.294,0.215
								c-1.365,0.001-2.663-0.103-3.832-0.293c-0.905-0.796-1.478-1.896-1.52-3.128c-0.034-0.999,0.289-1.94,0.87-2.715
								c1.327-0.261,2.855-0.41,4.482-0.41c1.465-0.001,2.851,0.12,4.081,0.333C345.724,341.019,346.046,341.857,346.077,342.763z"
								/>
						</g>
						<polygon style="fill:#F05841;" points="346.09,352.694 352.544,358.822 358.788,352.694 						"/>
						<path style="fill:#362F36;" d="M346.932,336.839l-8.45,0.286c-1.193,0.04-2.203-0.903-2.243-2.096l0,0
							c-0.041-1.193,0.903-2.203,2.096-2.243l8.45-0.286c1.193-0.04,2.203,0.903,2.243,2.096l0,0
							C349.068,335.789,348.125,336.798,346.932,336.839z"/>
						<path style="fill:#362F36;" d="M367.705,335.906l-8.45,0.286c-1.193,0.04-2.203-0.903-2.243-2.096l0,0
							c-0.04-1.193,0.903-2.203,2.096-2.243l8.45-0.286c1.193-0.04,2.203,0.903,2.243,2.096l0,0
							C369.842,334.856,368.899,335.865,367.705,335.906z"/>
					</g>
				</g>
				
					<path style="fill:none;stroke:#FFF8F3;stroke-width:2.0164;stroke-linecap:round;stroke-linejoin:round;stroke-miterlimit:10;" d="
					M265.223,272.38"/>
			</g>
			<path style="fill:#FFFFFF;" d="M345.286,357.193c-0.146,3.271,1.695,6.553,4.563,8.133c2.868,1.58,6.625,1.384,9.313-0.487
				c2.687-1.871,4.176-5.327,3.689-8.565L345.286,357.193z"/>
			<path style="fill:#362F36;" d="M348.043,363.966c0.611-0.577,1.249-1.055,1.905-1.435c2.35-1.812,5.468-1.721,8.031-0.411
				c0.889,0.379,1.744,0.89,2.54,1.519c1.806-1.952,2.726-4.728,2.33-7.366l-0.356,0.019c-2.641,6.196-12.738,5.833-17.211,1.253
				C345.28,359.94,346.33,362.299,348.043,363.966z"/>
			
				<path style="fill:none;stroke:#472A1C;stroke-width:0.7905;stroke-linecap:round;stroke-linejoin:round;stroke-miterlimit:10;" d="
				M350.103,352.682c1.804,1.107,4.837,1.239,6.609,0.009"/>
		</g>
		
			<path style="fill:none;stroke:#BA2111;stroke-width:1.6464;stroke-linecap:round;stroke-linejoin:round;stroke-miterlimit:10;" d="
			M365.057,326c-6.612,0.006-11.803,6.474-10.739,13.649c0.248,1.676,0.73,3.307,1.449,4.81c2.81,5.872,8.864,9.539,14.899,9.472
			c6.034-0.068,11.852-3.671,15.395-9.042c0.035-0.054,0.071-0.108,0.106-0.162c5.083-7.849-0.175-18.746-8.938-18.738L365.057,326z
			"/>
		
			<path style="fill:none;stroke:#BA2111;stroke-width:1.6464;stroke-linecap:round;stroke-linejoin:round;stroke-miterlimit:10;" d="
			M328.014,326.275c-6.612,0.006-11.803,6.474-10.739,13.649c0.249,1.676,0.73,3.307,1.449,4.81
			c2.81,5.872,8.865,9.539,14.899,9.472c6.034-0.068,11.852-3.671,15.395-9.042c0.035-0.054,0.071-0.108,0.106-0.162
			c5.083-7.849-0.175-18.746-8.938-18.738L328.014,326.275z"/>
		
			<line style="fill:none;stroke:#BA2111;stroke-width:1.6464;stroke-linecap:round;stroke-linejoin:round;stroke-miterlimit:10;" x1="343.156" y1="326.538" x2="362.089" y2="326.538"/>
		
			<line style="fill:none;stroke:#BA2111;stroke-width:1.6464;stroke-linecap:round;stroke-linejoin:round;stroke-miterlimit:10;" x1="321.204" y1="329.557" x2="329.162" y2="334.77"/>
		
			<line style="fill:none;stroke:#BA2111;stroke-width:1.6464;stroke-linecap:round;stroke-linejoin:round;stroke-miterlimit:10;" x1="378.371" y1="333.77" x2="384.315" y2="329.282"/>
		<path style="fill:#BA2111;" d="M377.523,283.844c-3.502,0-6.762,1.03-9.5,2.798c-2.209-6.171-8.106-10.587-15.036-10.587
			c-8.819,0-15.968,7.149-15.968,15.968c0,0.382,0.018,0.759,0.044,1.133c-2.121-1.279-4.605-2.015-7.262-2.015
			c-7.779,0-14.086,6.306-14.086,14.086c0,7.779,6.306,14.086,14.086,14.086c2.798,0,5.403-0.819,7.595-2.226
			c1.268,7.551,7.831,13.306,15.743,13.306c8.047,0,14.7-5.953,15.804-13.695c2.537,1.425,5.462,2.241,8.579,2.241
			c9.691,0,17.548-7.856,17.548-17.548C395.071,291.7,387.215,283.844,377.523,283.844z"/>
		
			<path style="fill:none;stroke:#EAAE4E;stroke-width:2.0164;stroke-linecap:round;stroke-linejoin:round;stroke-miterlimit:10;" d="
			M314.071,401.99c7.618,12.536,22.125,20.57,36.793,20.377c14.668-0.193,28.958-8.606,36.244-21.338"/>
	</g>
</g>
</svg>
